<?xml version="1.0" encoding="utf-8"?>
<!-- Generator: Adobe Illustrator 16.0.0, SVG Export Plug-In . SVG Version: 6.00 Build 0)  -->
<!DOCTYPE svg PUBLIC "-//W3C//DTD SVG 1.1//EN" "http://www.w3.org/Graphics/SVG/1.1/DTD/svg11.dtd">
<svg version="1.1" id="Layer_1" xmlns="http://www.w3.org/2000/svg" xmlns:xlink="http://www.w3.org/1999/xlink" x="0px" y="0px"
	 width="100px" height="100px" viewBox="0 0 100 100" enable-background="new 0 0 100 100" xml:space="preserve">
<g>
	<path d="M65.151,56.535H39.703V84.91H18.981V22.803c0-1.463,0.285-2.752,0.855-3.865c0.569-1.112,1.324-2.049,2.263-2.812
		c0.938-0.76,2.045-1.331,3.32-1.713c1.273-0.38,2.581-0.571,3.923-0.571c1.341,0,2.631,0.191,3.873,0.571
		c1.24,0.382,2.347,0.953,3.319,1.713c0.972,0.762,1.743,1.7,2.313,2.812c0.569,1.113,0.855,2.402,0.855,3.865V41.25h25.449V22.803
		c0-1.463,0.285-2.752,0.855-3.865c0.569-1.112,1.323-2.049,2.264-2.812c0.938-0.76,2.044-1.331,3.319-1.713
		c1.272-0.38,2.58-0.571,3.923-0.571c1.341,0,2.631,0.191,3.872,0.571c1.24,0.382,2.347,0.953,3.319,1.713
		c0.972,0.762,1.743,1.7,2.313,2.812c0.569,1.113,0.855,2.402,0.855,3.865V84.91H65.151V56.535z"/>
</g>
</svg>
