<?xml version="1.0" encoding="utf-8"?>
<!-- Generator: Adobe Illustrator 16.0.0, SVG Export Plug-In . SVG Version: 6.00 Build 0)  -->
<!DOCTYPE svg PUBLIC "-//W3C//DTD SVG 1.1//EN" "http://www.w3.org/Graphics/SVG/1.1/DTD/svg11.dtd">
<svg version="1.1" id="Layer_1" xmlns="http://www.w3.org/2000/svg" xmlns:xlink="http://www.w3.org/1999/xlink" x="0px" y="0px"
	 width="100px" height="100px" viewBox="0 0 100 100" style="enable-background:new 0 0 100 100;" xml:space="preserve">
<style type="text/css">
<![CDATA[
	.st0{fill:#FFFFFF;stroke:#231F20;stroke-width:0.3;stroke-miterlimit:10;}
]]>
</style>
<path class="st0" d="M36.993,0c0,0-33.182,21.688-18.913,39.242c0,0,6.908,12.005,43.714,3.171c4.624-1.11,9.251-2.167,13.98-2.727
	c3.995-0.474,9.129-1.534,12.102,1.998c1.327,1.577,1.865,4.86,1.626,6.834c-0.856,7.067-8.478,13.147-14.327,16.151
	c-4.749,2.439-10.064,3.706-15.394,3.853c-3.098,0.085-6.248-0.175-9.312-0.628c-32.956-4.87-11.211,34.202,33.409,36.58"/>
</svg>
