<?xml version="1.0" encoding="utf-8"?>
<!-- Generator: Adobe Illustrator 16.0.0, SVG Export Plug-In . SVG Version: 6.00 Build 0)  -->
<!DOCTYPE svg PUBLIC "-//W3C//DTD SVG 1.1//EN" "http://www.w3.org/Graphics/SVG/1.1/DTD/svg11.dtd">
<svg version="1.1" id="Layer_1" xmlns="http://www.w3.org/2000/svg" xmlns:xlink="http://www.w3.org/1999/xlink" x="0px" y="0px"
	 width="500px" height="500px" viewBox="0 0 500 500" style="enable-background:new 0 0 500 500;" xml:space="preserve">
<style type="text/css">
<![CDATA[
	.st0{fill:none;stroke:#231F20;stroke-miterlimit:10;}
]]>
</style>
<g>
	<path class="st0" d="M197.429,1.859c0,0-115.254,181.356-40.678,266.667c8.583,9.818,19.129,17.288,29.852,24.749
		c26.843,18.678,55.333,32.441,88.029,36.929c40.61,5.573,83.661-3.942,122.42,12.63c11.332,4.846,20.708,11.898,29.849,20.097
		c21.26,19.063,21.949,43.774,13.184,69.833c-8.345,24.806-25.721,46.732-42.655,66.271"/>
	<path class="st0" d="M202.914,1.652c0,0-100.368,183.235-40.863,270.505c6.9,10.12,14.805,18.6,23.708,25.659
		c22.777,18.061,46.568,31.675,74.45,38.123c34.891,8.069,72.931,1.961,109.777,19.09c10.547,4.902,19.519,11.657,28.397,19.455
		c20.083,17.749,22.417,40.51,16.374,64.286c-5.745,22.603-19.64,42.504-32.685,60.264"/>
	<path class="st0" d="M208.4,1.446c0,0-85.495,185.354-41.049,274.344c5.219,10.449,10.341,19.799,17.563,26.567
		c18.558,17.394,37.649,30.881,60.872,39.318c29.015,10.543,62.198,7.838,97.134,25.55c9.762,4.949,18.352,11.391,26.945,18.814
		c18.958,16.376,22.89,37.204,19.566,58.737c-3.144,20.368-13.56,38.275-22.714,54.257"/>
	<path class="st0" d="M213.885,1.239c0,0-70.742,187.73-41.234,278.183c3.526,10.809,7.529,19.595,11.418,27.479
		c17.896,12.451,28.519,29.97,47.294,40.511c22.938,12.878,51.471,13.682,84.49,32.011c8.981,4.985,17.171,11.139,25.494,18.172
		c17.799,15.04,23.352,33.844,22.757,53.191c-0.556,18.083-7.479,34.046-12.743,48.249"/>
	<path class="st0" d="M219.37,1.033c0,0-56.222,190.31-41.42,282.021c1.807,11.192,3.663,20.363,5.274,28.388
		c14.914,10.377,19.175,28.784,33.716,41.706c16.704,14.845,40.754,19.483,71.848,38.471c8.202,5.009,15.986,10.89,24.042,17.531
		c16.631,13.711,23.773,30.415,25.947,47.644c1.986,15.74-1.398,29.817-2.771,42.241"/>
	<path class="st0" d="M224.855,0.826c0,0-42.01,192.974-41.605,285.859c0.05,11.587-0.204,21.133-0.871,29.298
		c11.931,8.302,9.84,27.127,20.137,42.899c10.588,16.219,30.056,25.242,59.205,44.931c7.432,5.02,14.799,10.645,22.591,16.891
		c15.458,12.392,24.102,26.928,29.139,42.096c4.434,13.351,4.682,25.589,7.198,36.234"/>
	<path class="st0" d="M230.341,0.619c0,0-28.088,195.582-41.791,289.699c-1.743,11.973-4.07,21.9-7.016,30.207
		c8.948,6.226,1.006,25.067,6.56,44.094c5.007,17.154,19.389,30.947,46.562,51.391c6.667,5.017,13.608,10.403,21.14,16.249
		c14.275,11.08,24.279,23.453,32.329,36.549c6.744,10.972,10.763,21.36,17.17,30.227"/>
	<path class="st0" d="M235.826,0.413c0,0-14.378,198.028-41.976,293.538c-3.565,12.339-7.937,22.669-13.16,31.115
		c5.966,4.15-7.055,23.096-7.02,45.289c0.029,18.22,8.771,36.597,33.918,57.851c5.916,5,12.413,10.17,19.689,15.608
		c13.084,9.78,24.318,20.105,35.52,31.001c8.942,8.698,16.844,17.131,27.141,24.219"/>
	<path class="st0" d="M241.312,0.206c0,0-0.779,200.273-42.163,297.376c-5.404,12.681-11.803,23.439-19.304,32.026
		c2.983,2.075-14.686,21.604-20.598,46.483c-4.698,19.77-1.778,42.184,21.275,64.311c5.178,4.97,11.21,9.943,18.237,14.967
		c11.884,8.496,24.33,16.959,38.711,25.454c11.133,6.576,22.924,12.902,37.111,18.211"/>
	<path class="st0" d="M246.796,0c0,0,16.384,259.009-67.796,334.15c0,0-133.899,123.076,80.226,164.884"/>
</g>
</svg>
