<?xml version="1.0" encoding="utf-8"?>
<!-- Generator: Adobe Illustrator 16.0.0, SVG Export Plug-In . SVG Version: 6.00 Build 0)  -->
<!DOCTYPE svg PUBLIC "-//W3C//DTD SVG 1.1//EN" "http://www.w3.org/Graphics/SVG/1.1/DTD/svg11.dtd">
<svg version="1.1" id="Layer_1" xmlns="http://www.w3.org/2000/svg" xmlns:xlink="http://www.w3.org/1999/xlink" x="0px" y="0px"
	 width="200px" height="100px" viewBox="0 0 200 100" enable-background="new 0 0 200 100" xml:space="preserve">
<g>
	<path d="M48.822,42.446c-0.048-0.903-0.354-1.545-0.92-1.925s-1.343-0.571-2.331-0.571c-0.941,0-1.666,0.196-2.176,0.587
		c-0.51,0.391-0.75,1.026-0.717,1.905c0.016,0.447,0.196,0.823,0.54,1.126c0.344,0.304,0.756,0.559,1.236,0.767
		c0.48,0.208,0.98,0.375,1.5,0.503s0.948,0.24,1.284,0.335c0.864,0.271,1.652,0.571,2.364,0.899
		c0.711,0.328,1.324,0.719,1.836,1.174c0.512,0.455,0.912,0.991,1.2,1.606c0.288,0.615,0.432,1.354,0.432,2.217
		c0,1.102-0.196,2.041-0.589,2.816c-0.393,0.773-0.933,1.396-1.623,1.869c-0.689,0.471-1.49,0.807-2.404,1.006
		c-0.913,0.199-1.883,0.283-2.909,0.252c-1.074-0.032-2.047-0.184-2.92-0.456c-0.874-0.272-1.627-0.681-2.26-1.224
		c-0.633-0.545-1.13-1.229-1.491-2.053c-0.361-0.823-0.565-1.803-0.613-2.939h3.792c0.032,1.104,0.372,1.947,1.02,2.531
		s1.5,0.885,2.556,0.9c1.2,0.016,2.104-0.172,2.712-0.564c0.608-0.391,0.888-1.115,0.84-2.172c-0.016-0.495-0.144-0.903-0.384-1.224
		c-0.24-0.32-0.56-0.592-0.96-0.816c-0.4-0.224-0.864-0.416-1.392-0.576c-0.528-0.16-1.08-0.328-1.656-0.504
		c-0.672-0.176-1.364-0.392-2.076-0.648c-0.712-0.256-1.356-0.588-1.932-0.996c-0.576-0.408-1.052-0.916-1.428-1.524
		c-0.376-0.608-0.564-1.352-0.564-2.232c0-0.96,0.171-1.808,0.516-2.544c0.344-0.736,0.816-1.348,1.416-1.836
		c0.6-0.488,1.316-0.86,2.148-1.116c0.832-0.255,1.736-0.384,2.712-0.384c1.104,0,2.088,0.136,2.952,0.408
		c0.864,0.272,1.596,0.66,2.196,1.164c0.6,0.504,1.063,1.116,1.392,1.836c0.328,0.72,0.508,1.521,0.54,2.4H48.822z"/>
	<path d="M54.246,44.366c0-1.28,0.188-2.4,0.564-3.36c0.376-0.96,0.912-1.764,1.608-2.412c0.696-0.648,1.536-1.136,2.52-1.464
		c0.984-0.328,2.083-0.492,3.3-0.492c1.216,0,2.32,0.164,3.312,0.492c0.992,0.328,1.836,0.816,2.532,1.464
		c0.696,0.648,1.236,1.452,1.62,2.412c0.384,0.96,0.576,2.08,0.576,3.36v4.992c0,1.264-0.192,2.377-0.576,3.336
		c-0.384,0.961-0.924,1.76-1.62,2.4c-0.696,0.64-1.54,1.123-2.532,1.451c-0.992,0.328-2.096,0.492-3.312,0.492
		c-1.216,0-2.316-0.164-3.3-0.492c-0.984-0.328-1.824-0.812-2.52-1.451c-0.696-0.641-1.232-1.439-1.608-2.4
		c-0.376-0.959-0.564-2.072-0.564-3.336V44.366z M58.062,48.886c0,1.757,0.356,3.019,1.068,3.786c0.711,0.766,1.748,1.15,3.108,1.15
		c1.344,0,2.372-0.385,3.084-1.15c0.712-0.767,1.068-2.028,1.068-3.786v-3.977c0-1.773-0.36-3.043-1.08-3.81
		c-0.72-0.766-1.744-1.15-3.072-1.15c-1.344,0-2.376,0.384-3.096,1.15c-0.72,0.767-1.08,2.037-1.08,3.81V48.886z"/>
	<path d="M72.054,44.366c0-1.28,0.188-2.4,0.564-3.36c0.376-0.96,0.912-1.764,1.608-2.412c0.696-0.648,1.536-1.136,2.52-1.464
		c0.984-0.328,2.083-0.492,3.3-0.492c1.216,0,2.32,0.164,3.312,0.492c0.992,0.328,1.836,0.816,2.532,1.464
		c0.696,0.648,1.237,1.452,1.62,2.412c0.385,0.96,0.576,2.08,0.576,3.36v4.992c0,1.264-0.191,2.377-0.576,3.336
		c-0.383,0.961-0.923,1.76-1.62,2.4c-0.696,0.64-1.54,1.123-2.532,1.451c-0.992,0.328-2.096,0.492-3.312,0.492
		c-1.216,0-2.316-0.164-3.3-0.492c-0.984-0.328-1.824-0.812-2.52-1.451c-0.696-0.641-1.232-1.439-1.608-2.4
		c-0.376-0.959-0.564-2.072-0.564-3.336V44.366z M75.87,48.886c0,1.757,0.356,3.019,1.068,3.786c0.711,0.766,1.748,1.15,3.108,1.15
		c1.344,0,2.372-0.385,3.084-1.15c0.712-0.767,1.068-2.028,1.068-3.786v-3.977c0-1.773-0.36-3.043-1.08-3.81
		c-0.72-0.766-1.744-1.15-3.072-1.15c-1.344,0-2.376,0.384-3.096,1.15c-0.72,0.767-1.08,2.037-1.08,3.81V48.886z"/>
	<path d="M94.158,50.39v6.265H90.27V37.262h7.416c1.152,0,2.132,0.216,2.939,0.648c0.808,0.432,1.464,0.976,1.968,1.632
		c0.504,0.656,0.873,1.368,1.104,2.136c0.232,0.768,0.35,1.488,0.35,2.16c0,0.672-0.117,1.392-0.348,2.16
		c-0.232,0.768-0.6,1.476-1.102,2.124c-0.504,0.648-1.158,1.188-1.963,1.62c-0.807,0.432-1.784,0.648-2.933,0.648H94.158z
		 M96.548,47.149c1.147,0,2.036-0.276,2.665-0.828c0.63-0.552,0.944-1.38,0.944-2.484c0-1.088-0.314-1.912-0.944-2.472
		c-0.629-0.56-1.518-0.84-2.665-0.84h-2.391v6.624H96.548z"/>
	<path d="M109.686,50.39v6.265h-3.889V37.262h7.416c1.152,0,2.133,0.216,2.939,0.648c0.809,0.432,1.465,0.976,1.969,1.632
		c0.504,0.656,0.873,1.368,1.104,2.136c0.232,0.768,0.35,1.488,0.35,2.16c0,0.672-0.117,1.392-0.348,2.16
		c-0.232,0.768-0.6,1.476-1.102,2.124c-0.504,0.648-1.158,1.188-1.963,1.62c-0.807,0.432-1.785,0.648-2.934,0.648H109.686z
		 M112.076,47.149c1.146,0,2.035-0.276,2.664-0.828c0.631-0.552,0.945-1.38,0.945-2.484c0-1.088-0.314-1.912-0.945-2.472
		c-0.629-0.56-1.518-0.84-2.664-0.84h-2.391v6.624H112.076z"/>
	<path d="M120.365,56.654v-3.072h1.703V40.333h-1.703v-3.072h7.271v3.072h-1.752v13.249h1.752v3.072H120.365z"/>
	<path d="M139.949,40.526h-4.848v-3.264h13.584v3.264h-4.85v16.128h-3.887V40.526z"/>
	<path d="M158.092,51.422l4.271-14.16h4.033l-6.168,19.393h-4.248l-6.168-19.393h4.031L158.092,51.422z"/>
</g>
</svg>
